<?xml version="1.0" encoding="UTF-8"?>
<svg width="85.381mm" height="111.94mm" version="1.1" viewBox="0 0 85.381 111.94" xmlns="http://www.w3.org/2000/svg" xmlns:xlink="http://www.w3.org/1999/xlink">
 <defs>
  <linearGradient id="linearGradient174295" x1="93.255" x2="174.99" y1="83.476" y2="83.423" gradientTransform="matrix(1 0 0 .88177 -81.803 -43.052)" gradientUnits="userSpaceOnUse">
   <stop stop-color="#c8003f" offset="0"/>
   <stop stop-color="#e9e446" offset="1"/>
  </linearGradient>
 </defs>
 <g transform="translate(-.17545 -.16605)">
  <rect x=".17545" y=".16605" width="85.381" height="57.019" rx="0" ry="0" fill="url(#linearGradient174295)" stroke-width="0" style="mix-blend-mode:normal;paint-order:markers stroke fill"/>
  <text transform="scale(1.0249 .97567)" x="-0.27414832" y="100.81636" fill="#000000" font-family="'Segoe UI'" font-size="49.564px" font-weight="bold" letter-spacing="1.3966px" stroke-width=".25814" style="line-height:1.25" xml:space="preserve"><tspan x="-0.27414832" y="100.81636" font-family="'Segoe UI'" font-size="49.564px" font-weight="bold" stroke-width=".25814">glsl</tspan></text>
  <g fill="#fff" stroke-width="0">
   <path transform="matrix(.26458 0 0 .26458 .17545 .16605)" d="m34.074 412.69c-4.9504-0.44756-11.46-1.5772-14.465-2.5104l-5.4647-1.6967v-22.595l7.2396 3.3144c8.7235 3.9938 26.047 5.4669 35.17 2.9907 7.3479-1.9943 15.909-10.321 17.868-17.381 1.3287-4.7863 2.0293-17.354 0.96729-17.354-0.26055 0-3.0235 2.5498-6.1399 5.6662-9.5293 9.5293-26.61 12.36-40.233 6.6677-6.8619-2.8671-15.561-11.682-18.677-18.925-11.816-27.468-0.24658-61.972 23.516-70.13 13.871-4.7619 32.33-1.4386 37.723 6.791 2.9126 4.4452 4.2858 3.7802 4.2858-2.0757v-5.1433h28.288v43.655c0 27.394-0.53796 46.193-1.4442 50.468-5.8369 27.538-31.148 41.648-68.633 38.259zm32.52-63.776c6.2805-4.5745 9.2689-12.5 9.2689-24.581 0-11.946-1.5001-16.096-7.7066-21.318-7.9696-6.706-19.779-5.6721-26.821 2.348-10.493 11.951-8.4952 36.006 3.6681 44.163 3.6891 2.4739 5.7269 2.9195 11.304 2.4718 3.9944-0.32066 8.242-1.5937 10.287-3.0829z" style="paint-order:markers stroke fill"/>
   <path transform="matrix(.26458 0 0 .26458 .17545 .16605)" d="m135.01 303.45v-66.863h29.574v133.73h-29.574z" style="paint-order:markers stroke fill"/>
   <path transform="matrix(.26458 0 0 .26458 .17545 .16605)" d="m202.37 371.58c-13.388-2.4182-13.359-2.3878-13.359-14.04v-10.273l5.4647 2.3309c19.232 8.2031 39.539 6.2986 39.539-3.7081 0-4.6377-2.7146-6.5998-14.882-10.757-19.867-6.7872-26.178-11.519-28.913-21.677-6.1201-22.728 17.787-38.904 50.973-34.487 15.477 2.0596 14.682 1.3792 14.682 12.562 0 9.4288-0.0681 9.6344-2.8931 8.7368-20.07-6.3769-35.681-4.6865-35.681 3.8635 0 4.6761 3.7373 7.6573 13.665 10.901 22.455 7.336 30.521 14.804 30.396 28.141-0.0387 4.1031-0.97011 9.2003-2.0699 11.327-3.006 5.813-10.048 11.373-18.328 14.471-8.5282 3.1908-28.062 4.5116-38.593 2.6096z" style="paint-order:markers stroke fill"/>
   <path transform="matrix(.26458 0 0 .26458 .17545 .16605)" d="m285.45 303.45v-66.863h28.288v133.73h-28.288z" style="paint-order:markers stroke fill"/>
  </g>
 </g>
</svg>
