<svg width="120" height="120" viewBox="0 0 120 120" fill="none" xmlns="http://www.w3.org/2000/svg">
  <rect width="120" height="120" fill="white" />
  <path id="disk"
    d="M39.8225 57.3787V100.192L48.0503 105C52.1888 102.488 80.1676 86.1623 80.1676 86.1623L80.1775 49.685C75.8427 46.5629 67.8655 41 67.8655 41L39.8225 57.3787ZM75.1246 50.1895L76.7188 51.1699L76.7185 84.3074L75.1246 85.2649V69.7664L51.3918 83.6551V99.0842L49.7976 100.046L49.8032 63.3192L51.369 62.3608L51.4143 78.046L75.1244 64.1301V50.1895H75.1246ZM71.6756 62.2012L54.5323 72.2959V60.4063L71.6756 50.3833V62.2012Z" />
  <path id="cable1" d="M69.9759 52.9639L66.8098 54.8034V62.5824L69.9759 60.7429V52.9639Z" />
  <path id="cable1" d="M47 0H68V45.9167L47 58V0Z" />
</svg>