<svg xmlns="http://www.w3.org/2000/svg" xmlns:xlink="http://www.w3.org/1999/xlink" version="1.1" id="Capa_1" x="0px"
  y="0px" viewBox="0 0 278.336 278.336" style="enable-background:new 0 0 278.336 278.336;" xml:space="preserve">
  <g id="disk">
    <path
      d="M51.416,71.231v186.194l35.783,20.91c17.998-10.923,139.678-81.924,139.678-81.924l0.043-158.64   C208.068,24.193,173.375,0,173.375,0L51.416,71.231z M204.945,39.965l6.933,4.264l-0.001,144.115l-6.932,4.164v-67.403   l-103.214,60.402v67.101l-6.933,4.181l0.024-159.723l6.81-4.168l0.197,68.215l103.115-60.52V39.965z M189.945,92.204   l-74.556,43.902V84.398l74.556-43.59V92.204z" />
    <polygon points="182.553,52.031 168.784,60.031 168.784,93.862 182.553,85.862  " />
  </g>
</svg>