<?xml version="1.0" standalone="no"?>
<!DOCTYPE svg PUBLIC "-//W3C//DTD SVG 20010904//EN"
 "http://www.w3.org/TR/2001/REC-SVG-20010904/DTD/svg10.dtd">
<svg version="1.0" xmlns="http://www.w3.org/2000/svg"
 width="683.000000pt" height="683.000000pt" viewBox="0 0 683.000000 683.000000"
 preserveAspectRatio="xMidYMid meet">

<g transform="translate(0.000000,683.000000) scale(0.100000,-0.100000)"
fill="#000000" stroke="none">
<path d="M2555 5089 c-3 -13 -46 -211 -95 -439 -50 -228 -92 -425 -95 -437
l-5 -23 307 0 308 0 46 53 47 53 -248 402 c-136 221 -250 405 -253 408 -3 4
-9 -4 -12 -17z"/>
<path d="M4013 4703 l-250 -408 51 -57 50 -58 303 0 c167 0 303 3 303 8 0 12
-200 915 -203 919 -2 1 -116 -180 -254 -404z"/>
<path d="M2277 2870 c-128 -33 -226 -137 -263 -280 -11 -41 -16 -104 -16 -170
0 -163 43 -275 140 -361 125 -113 323 -108 441 10 l41 41 0 -107 c0 -91 -3
-113 -20 -141 -27 -44 -77 -63 -167 -64 -82 0 -113 14 -135 59 -13 27 -18 28
-141 44 -71 8 -130 12 -133 8 -8 -14 8 -93 27 -131 28 -55 85 -105 148 -130
50 -19 75 -22 221 -22 198 -1 254 13 329 80 101 90 111 159 111 731 l0 423
-110 0 -110 0 0 -61 0 -61 -44 45 c-25 24 -66 54 -92 67 -54 25 -167 35 -227
20z m234 -190 c59 -30 95 -87 109 -171 34 -198 -49 -342 -197 -342 -101 0
-162 66 -183 199 -12 75 0 185 24 232 18 35 64 78 96 91 42 16 108 12 151 -9z"/>
<path d="M3435 2867 c-59 -20 -84 -35 -137 -85 l-48 -45 0 62 0 61 -110 0
-110 0 0 -610 0 -610 120 0 120 0 0 221 0 221 50 -45 c150 -135 384 -95 500
84 55 85 74 162 74 299 1 177 -46 298 -148 381 -80 67 -219 96 -311 66z m112
-193 c77 -37 119 -147 110 -292 -6 -102 -40 -180 -93 -213 -108 -67 -239 -7
-280 127 -16 55 -18 192 -4 245 14 50 49 99 89 126 42 28 126 31 178 7z"/>
<path d="M4030 2552 c0 -318 7 -397 41 -463 41 -82 138 -131 257 -130 93 0
167 29 237 93 l55 50 0 -66 0 -67 108 3 107 3 3 443 2 442 -119 0 -119 0 -4
-297 c-3 -259 -5 -302 -20 -329 -52 -95 -179 -130 -254 -71 -50 39 -54 65 -61
392 l-6 305 -114 0 -113 0 0 -308z"/>
</g>
</svg>
