<?xml version="1.0" encoding="UTF-8"?>
<svg width="94.135mm" height="106.73mm" version="1.1" viewBox="0 0 94.135 106.73" xmlns="http://www.w3.org/2000/svg">
 <g transform="translate(-61.284 -54.304)">
  <g fill="none" stroke-width="0">
   <path d="m76.933 54.304-15.649 60.467 34.458-34.458z"/>
   <path d="m95.742 80.313 12.52 17.393-15.695 17.152-31.283-0.08644z"/>
   <path d="m95.742 80.313 12.484-12.493 12.478 12.474-12.442 17.411z"/>
   <path d="m108.26 97.706 15.784 17.353 31.373-0.0813-34.715-34.683z"/>
   <path d="m120.7 80.294 18.827-25.844 15.888 60.527z"/>
  </g>
  <g stroke-width="0">
   <path transform="matrix(.26458 0 0 .26458 -17.111 .22852)" d="m297.92 429.82c2e-3 -0.26324 57.052-221.17 57.71-223.47 0.10804-0.37669 69.707 95.747 69.676 96.229-0.0114 0.17418-25.573 25.88-56.803 57.124-66.907 66.936-70.587 70.592-70.583 70.116z" fill="#e33200"/>
   <path transform="matrix(.26458 0 0 .26458 -17.111 .22852)" d="m309.09 421.15c6.116-6.0849 34.965-34.917 64.11-64.072 29.144-29.155 53.127-52.956 53.294-52.892 0.16745 0.0639 10.676 14.529 23.352 32.145l23.047 32.029-5.5958 6.1259c-3.0777 3.3692-16.288 17.809-29.357 32.089l-23.761 25.963-47.692-0.16501c-26.23-0.0908-52.378-0.16374-58.105-0.16218l-10.413 3e-3z" fill="#fbcb4d"/>
   <path transform="matrix(.26458 0 0 .26458 -17.111 .22852)" d="m470.05 361.86c-20.899-28.919-42.337-58.815-42.344-59.051-5e-3 -0.16034 10.335-10.624 22.977-23.252l22.986-22.96 3.6626 3.6025c2.0144 1.9814 12.4 12.339 23.079 23.017l19.416 19.414-0.68788 1.0437c-0.73267 1.1117-42.209 59.252-44.146 61.882l-1.1464 1.5568z" fill="#82ae3b"/>
  </g>
  <g fill-opacity="0" stroke-width="0">
   <path transform="matrix(.26458 0 0 .26458 -17.111 .22852)" d="m504.4 400.92c-16.194-17.807-29.363-32.579-29.263-32.828 0.37825-0.9441 45.59-63.967 45.887-63.965 0.17169 2e-3 29.318 28.978 64.769 64.392l64.457 64.389-3.1934 0.0656c-2.99 0.0615-107.36 0.38029-111.37 0.34022l-1.8445-0.0184z"/>
   <path transform="matrix(.26458 0 0 .26458 -17.111 .22852)" d="m504.4 400.92c-16.194-17.807-29.363-32.579-29.263-32.828 0.37825-0.9441 45.59-63.967 45.887-63.965 0.17169 2e-3 29.318 28.978 64.769 64.392l64.457 64.389-3.1934 0.0656c-2.99 0.0615-107.36 0.38029-111.37 0.34022l-1.8445-0.0184z"/>
   <path transform="matrix(.26458 0 0 .26458 -17.111 .22852)" d="m504.4 400.92c-16.194-17.807-29.363-32.579-29.263-32.828 0.37825-0.9441 45.59-63.967 45.887-63.965 0.17169 2e-3 29.318 28.978 64.769 64.392l64.457 64.389-3.1934 0.0656c-2.99 0.0615-107.36 0.38029-111.37 0.34022l-1.8445-0.0184z"/>
   <path transform="matrix(.26458 0 0 .26458 -17.111 .22852)" d="m504.4 400.92c-16.194-17.807-29.363-32.579-29.263-32.828 0.37825-0.9441 45.59-63.967 45.887-63.965 0.17169 2e-3 29.318 28.978 64.769 64.392l64.457 64.389-3.1934 0.0656c-2.99 0.0615-107.36 0.38029-111.37 0.34022l-1.8445-0.0184z"/>
   <path transform="matrix(.26458 0 0 .26458 -17.111 .22852)" d="m504.4 400.92c-16.194-17.807-29.363-32.579-29.263-32.828 0.37825-0.9441 45.59-63.967 45.887-63.965 0.17169 2e-3 29.318 28.978 64.769 64.392l64.457 64.389-3.1934 0.0656c-2.99 0.0615-107.36 0.38029-111.37 0.34022l-1.8445-0.0184z"/>
   <path transform="matrix(.26458 0 0 .26458 -17.111 .22852)" d="m504.4 400.92c-16.194-17.807-29.363-32.579-29.263-32.828 0.37825-0.9441 45.59-63.967 45.887-63.965 0.17169 2e-3 29.318 28.978 64.769 64.392l64.457 64.389-3.1934 0.0656c-2.99 0.0615-107.36 0.38029-111.37 0.34022l-1.8445-0.0184z"/>
   <path transform="matrix(.26458 0 0 .26458 -17.111 .22852)" d="m504.4 400.92c-16.194-17.807-29.363-32.579-29.263-32.828 0.37825-0.9441 45.59-63.967 45.887-63.965 0.17169 2e-3 29.318 28.978 64.769 64.392l64.457 64.389-3.1934 0.0656c-2.99 0.0615-107.36 0.38029-111.37 0.34022l-1.8445-0.0184z"/>
   <path transform="matrix(.26458 0 0 .26458 -17.111 .22852)" d="m504.4 400.92c-16.194-17.807-29.363-32.579-29.263-32.828 0.37825-0.9441 45.59-63.967 45.887-63.965 0.17169 2e-3 29.318 28.978 64.769 64.392l64.457 64.389-3.1934 0.0656c-2.99 0.0615-107.36 0.38029-111.37 0.34022l-1.8445-0.0184z"/>
   <path transform="matrix(.26458 0 0 .26458 -17.111 .22852)" d="m504.4 400.92c-16.194-17.807-29.363-32.579-29.263-32.828 0.37825-0.9441 45.59-63.967 45.887-63.965 0.17169 2e-3 29.318 28.978 64.769 64.392l64.457 64.389-3.1934 0.0656c-2.99 0.0615-107.36 0.38029-111.37 0.34022l-1.8445-0.0184z"/>
   <path transform="matrix(.26458 0 0 .26458 -17.111 .22852)" d="m504.4 400.92c-16.194-17.807-29.363-32.579-29.263-32.828 0.37825-0.9441 45.59-63.967 45.887-63.965 0.17169 2e-3 29.318 28.978 64.769 64.392l64.457 64.389-3.1934 0.0656c-2.99 0.0615-107.36 0.38029-111.37 0.34022l-1.8445-0.0184z"/>
  </g>
  <g>
   <path transform="matrix(.26458 0 0 .26458 -17.111 .22852)" d="m504.4 400.92c-16.194-17.807-29.363-32.579-29.263-32.828 0.37825-0.9441 45.59-63.967 45.887-63.965 0.17169 2e-3 29.318 28.978 64.769 64.392l64.457 64.389-3.1934 0.0656c-2.99 0.0615-107.36 0.38029-111.37 0.34022l-1.8445-0.0184z" fill="#90d3f5" stroke-width="0"/>
   <path transform="matrix(.26458 0 0 .26458 -17.111 .22852)" d="m593.66 374.29c-31.196-31.177-60.101-60.095-64.234-64.264l-7.5148-7.5783 34.777-47.746c19.127-26.26 34.901-47.611 35.053-47.446 0.29986 0.32635 58.922 223.49 58.746 223.63-0.0591 0.0482-25.631-25.421-56.827-56.598z" fill="#2780ed" stroke-width="0"/>
   <text transform="scale(1.025 .97557)" x="59.431122" y="151.54646" fill="#000000" font-family="'Segoe UI'" font-size="49.559px" font-weight="bold" letter-spacing="1.3964px" stroke-width=".25812" style="line-height:1.25" xml:space="preserve"><tspan x="59.431122" y="151.54646" font-family="'Segoe UI'" font-size="49.559px" font-weight="bold" stroke-width=".25812">gpu</tspan></text>
  </g>
 </g>
</svg>
