<?xml version="1.0" encoding="UTF-8"?>
<svg width="94.135mm" height="106.73mm" version="1.1" viewBox="0 0 94.135 106.73" xmlns="http://www.w3.org/2000/svg">
 <g transform="translate(-61.284 -54.304)">
  <g fill="none" stroke-width="0">
   <path d="m76.933 54.304-15.649 60.467 34.458-34.458z"/>
   <path d="m95.742 80.313 12.52 17.393-15.695 17.152-31.283-0.08644z"/>
   <path d="m95.742 80.313 12.484-12.493 12.478 12.474-12.442 17.411z"/>
   <path d="m108.26 97.706 15.784 17.353 31.373-0.0813-34.715-34.683z"/>
   <path d="m120.7 80.294 18.827-25.844 15.888 60.527z"/>
  </g>
  <g stroke-width="0">
   <path transform="matrix(.26458 0 0 .26458 -17.111 .22852)" d="m297.92 429.82c2e-3 -0.26324 57.052-221.17 57.71-223.47 0.10804-0.37669 69.707 95.747 69.676 96.229-0.0114 0.17418-25.573 25.88-56.803 57.124-66.907 66.936-70.587 70.592-70.583 70.116z" fill="#e33200"/>
   <path transform="matrix(.26458 0 0 .26458 -17.111 .22852)" d="m309.09 421.15c6.116-6.0849 34.965-34.917 64.11-64.072 29.144-29.155 53.127-52.956 53.294-52.892 0.16745 0.0639 10.676 14.529 23.352 32.145l23.047 32.029-5.5958 6.1259c-3.0777 3.3692-16.288 17.809-29.357 32.089l-23.761 25.963-47.692-0.16501c-26.23-0.0908-52.378-0.16374-58.105-0.16218l-10.413 3e-3z" fill="#fbcb4d"/>
   <path transform="matrix(.26458 0 0 .26458 -17.111 .22852)" d="m470.05 361.86c-20.899-28.919-42.337-58.815-42.344-59.051-5e-3 -0.16034 10.335-10.624 22.977-23.252l22.986-22.96 3.6626 3.6025c2.0144 1.9814 12.4 12.339 23.079 23.017l19.416 19.414-0.68788 1.0437c-0.73267 1.1117-42.209 59.252-44.146 61.882l-1.1464 1.5568z" fill="#82ae3b"/>
  </g>
  <g fill-opacity="0" stroke-width="0">
   <path transform="matrix(.26458 0 0 .26458 -17.111 .22852)" d="m504.4 400.92c-16.194-17.807-29.363-32.579-29.263-32.828 0.37825-0.9441 45.59-63.967 45.887-63.965 0.17169 2e-3 29.318 28.978 64.769 64.392l64.457 64.389-3.1934 0.0656c-2.99 0.0615-107.36 0.38029-111.37 0.34022l-1.8445-0.0184z"/>
   <path transform="matrix(.26458 0 0 .26458 -17.111 .22852)" d="m504.4 400.92c-16.194-17.807-29.363-32.579-29.263-32.828 0.37825-0.9441 45.59-63.967 45.887-63.965 0.17169 2e-3 29.318 28.978 64.769 64.392l64.457 64.389-3.1934 0.0656c-2.99 0.0615-107.36 0.38029-111.37 0.34022l-1.8445-0.0184z"/>
   <path transform="matrix(.26458 0 0 .26458 -17.111 .22852)" d="m504.4 400.92c-16.194-17.807-29.363-32.579-29.263-32.828 0.37825-0.9441 45.59-63.967 45.887-63.965 0.17169 2e-3 29.318 28.978 64.769 64.392l64.457 64.389-3.1934 0.0656c-2.99 0.0615-107.36 0.38029-111.37 0.34022l-1.8445-0.0184z"/>
   <path transform="matrix(.26458 0 0 .26458 -17.111 .22852)" d="m504.4 400.92c-16.194-17.807-29.363-32.579-29.263-32.828 0.37825-0.9441 45.59-63.967 45.887-63.965 0.17169 2e-3 29.318 28.978 64.769 64.392l64.457 64.389-3.1934 0.0656c-2.99 0.0615-107.36 0.38029-111.37 0.34022l-1.8445-0.0184z"/>
   <path transform="matrix(.26458 0 0 .26458 -17.111 .22852)" d="m504.4 400.92c-16.194-17.807-29.363-32.579-29.263-32.828 0.37825-0.9441 45.59-63.967 45.887-63.965 0.17169 2e-3 29.318 28.978 64.769 64.392l64.457 64.389-3.1934 0.0656c-2.99 0.0615-107.36 0.38029-111.37 0.34022l-1.8445-0.0184z"/>
   <path transform="matrix(.26458 0 0 .26458 -17.111 .22852)" d="m504.4 400.92c-16.194-17.807-29.363-32.579-29.263-32.828 0.37825-0.9441 45.59-63.967 45.887-63.965 0.17169 2e-3 29.318 28.978 64.769 64.392l64.457 64.389-3.1934 0.0656c-2.99 0.0615-107.36 0.38029-111.37 0.34022l-1.8445-0.0184z"/>
   <path transform="matrix(.26458 0 0 .26458 -17.111 .22852)" d="m504.4 400.92c-16.194-17.807-29.363-32.579-29.263-32.828 0.37825-0.9441 45.59-63.967 45.887-63.965 0.17169 2e-3 29.318 28.978 64.769 64.392l64.457 64.389-3.1934 0.0656c-2.99 0.0615-107.36 0.38029-111.37 0.34022l-1.8445-0.0184z"/>
   <path transform="matrix(.26458 0 0 .26458 -17.111 .22852)" d="m504.4 400.92c-16.194-17.807-29.363-32.579-29.263-32.828 0.37825-0.9441 45.59-63.967 45.887-63.965 0.17169 2e-3 29.318 28.978 64.769 64.392l64.457 64.389-3.1934 0.0656c-2.99 0.0615-107.36 0.38029-111.37 0.34022l-1.8445-0.0184z"/>
   <path transform="matrix(.26458 0 0 .26458 -17.111 .22852)" d="m504.4 400.92c-16.194-17.807-29.363-32.579-29.263-32.828 0.37825-0.9441 45.59-63.967 45.887-63.965 0.17169 2e-3 29.318 28.978 64.769 64.392l64.457 64.389-3.1934 0.0656c-2.99 0.0615-107.36 0.38029-111.37 0.34022l-1.8445-0.0184z"/>
   <path transform="matrix(.26458 0 0 .26458 -17.111 .22852)" d="m504.4 400.92c-16.194-17.807-29.363-32.579-29.263-32.828 0.37825-0.9441 45.59-63.967 45.887-63.965 0.17169 2e-3 29.318 28.978 64.769 64.392l64.457 64.389-3.1934 0.0656c-2.99 0.0615-107.36 0.38029-111.37 0.34022l-1.8445-0.0184z"/>
  </g>
  <g>
   <path transform="matrix(.26458 0 0 .26458 -17.111 .22852)" d="m504.4 400.92c-16.194-17.807-29.363-32.579-29.263-32.828 0.37825-0.9441 45.59-63.967 45.887-63.965 0.17169 2e-3 29.318 28.978 64.769 64.392l64.457 64.389-3.1934 0.0656c-2.99 0.0615-107.36 0.38029-111.37 0.34022l-1.8445-0.0184z" fill="#90d3f5" stroke-width="0"/>
   <path transform="matrix(.26458 0 0 .26458 -17.111 .22852)" d="m593.66 374.29c-31.196-31.177-60.101-60.095-64.234-64.264l-7.5148-7.5783 34.777-47.746c19.127-26.26 34.901-47.611 35.053-47.446 0.29986 0.32635 58.922 223.49 58.746 223.63-0.0591 0.0482-25.631-25.421-56.827-56.598z" fill="#2780ed" stroke-width="0"/>
   <text transform="scale(1.025 .97557)" x="59.431122" y="151.54646" fill="#000000" font-family="'Segoe UI'" font-size="49.559px" font-weight="bold" letter-spacing="1.3964px" stroke-width=".25812" style="line-height:1.25" xml:space="preserve"><tspan x="59.431122" y="151.54646" font-family="'Segoe UI'" font-size="49.559px" font-weight="bold" stroke-width=".25812">gpu</tspan></text>
  </g>
  <g fill="#fff" stroke-width="0">
   <path transform="matrix(.26458 0 0 .26458 61.284 54.304)" d="m283.11 354.62c-9.0215-1.918-16.048-7.1166-19.91-14.731-3.8203-7.5313-4.2741-12.453-4.211-45.669l0.0596-31.375 28.562 0.066-0.065 28.178c-0.042 18.188 0.2808 29.565 0.91043 32.091 3.0485 12.226 18.839 15.592 28.124 5.9959 5.1317-5.3034 5.5161-8.005 5.5883-39.272l0.0616-26.663 5.8434-0.53827c3.2139-0.29605 9.6408-0.53227 14.282-0.52494l8.4387 0.0133-0.1049 45.439-0.1049 45.439-28.562-0.066 0.016-6.924c9e-3 -3.8082-0.13846-6.9244-0.32723-6.9248-0.18877-4.4e-4 -3.0186 2.6576-6.2886 5.9068-4.5366 4.5078-7.1769 6.3656-11.143 7.8403-5.8685 2.1822-15.362 2.9524-21.17 1.7177z" fill-opacity=".74359" style="paint-order:markers stroke fill"/>
   <path transform="matrix(.26458 0 0 .26458 61.284 54.304)" d="m135.99 328.77 0.15285-66.211 28.562 0.066-0.0162 6.9996-0.0162 6.9996 5.0731-5.1287c8.855-8.9521 20.61-12.715 33.155-10.614 21.378 3.5813 32.829 20.941 31.516 47.776-0.75055 15.33-4.5004 25.08-13.272 34.511-14.166 15.231-40.623 16.341-52.961 2.2225-1.5084-1.726-2.9492-3.1387-3.2018-3.1393-0.25255-5.8e-4 -0.48661 11.878-0.52013 26.397l-0.0609 26.398-28.562-0.066zm57.233 3.3402c8.4316-4.3661 12.79-15.248 11.841-29.568-0.80576-12.167-5.6333-18.877-14.997-20.844-8.0156-1.6833-13.475-0.0988-18.98 5.509-3.1031 3.161-4.7553 5.7296-5.6398 8.7682-1.5787 5.4228-1.6557 19.463-0.1359 24.764 3.4422 12.006 16.451 17.305 27.911 11.37z" fill-opacity=".74359" style="paint-order:markers stroke fill"/>
   <path transform="matrix(.26458 0 0 .26458 61.284 54.304)" d="m27.218 394.65c-2.3791-0.47061-6.1742-1.4618-8.4336-2.2026l-4.1081-1.347 0.02581-11.182c0.0142-6.1501 0.17209-11.182 0.35087-11.181s2.4161 0.92657 4.9719 2.0581c11.63 5.1492 26.8 6.4582 37.359 3.2237 7.1692-2.1962 13.441-7.5757 16.163-13.864 1.878-4.3378 3.7181-19.836 2.3555-19.839-0.32926-7.6e-4 -2.7058 2.1469-5.2812 4.7726-2.7576 2.8114-6.7516 5.7376-9.7156 7.118-4.6401 2.161-5.8815 2.342-15.897 2.3189-10.824-0.025-10.888-0.0372-17.474-3.3108-10.417-5.1782-16.913-13.758-20.134-26.59-2.0771-8.2761-1.3059-26.9 1.4459-34.917 4.1726-12.155 13.802-22.593 24.596-26.661 4.4677-1.6841 6.9526-2.0072 15.288-1.988 11.701 0.027 15.482 1.3444 22.33 7.7799 2.3211 2.1812 4.4719 3.9663 4.7795 3.967s0.56477-2.3356 0.57136-5.1917l0.01199-5.193 28.645 0.0662-0.38299 46.52c-0.37907 46.046-0.40369 46.582-2.414 52.574-5.4528 16.253-17.522 27.228-35.239 32.042-6.1766 1.6786-33.02 2.3702-39.816 1.0259zm39.662-63.557c2.4264-1.7376 4.6844-4.4621 6.3476-7.6593 2.2435-4.3126 2.6299-6.1006 2.9507-13.654 0.49752-11.712-0.69792-16.715-5.2305-21.888-4.3999-5.0219-7.6422-6.4593-14.606-6.4754-13.605-0.0314-20.999 9.7079-20.988 27.648 0.0075 12.376 3.3084 19.511 10.792 23.328 3.0493 1.5554 4.9003 1.85 10.341 1.6461 5.8205-0.21822 7.0851-0.57659 10.393-2.9453z" fill-opacity=".74359" style="paint-order:markers stroke fill"/>
   <path transform="matrix(.26458 0 0 .26458 61.284 54.304)" d="m29.536 394.8c-2.85-0.32074-4.3072-0.66321-10.063-2.3649l-4.8633-1.4378 0.20316-10.837c0.11174-5.9604 0.27898-10.913 0.37166-11.005 0.09267-0.0922 1.9943 0.60196 4.2259 1.5427 8.6064 3.6281 16.006 5.1636 24.922 5.1714 11.064 0.01 18.567-2.6772 24.589-8.8061 3.8686-3.9369 5.2597-6.8763 6.4474-13.623 0.74541-4.2347 1.3311-10.916 1.0772-12.287-0.1723-0.93031-1.0352-1.4723-1.0371-0.6514-4.54e-4 0.19635-0.0827 0.27475-0.18277 0.17422s-1.769 1.353-3.7087 3.23c-1.9397 1.877-4.5137 4.1558-5.7199 5.0638-2.5994 1.957-7.5818 4.3837-10.157 4.947-2.5029 0.54755-18.875 0.52533-21.267-0.0289-2.2328-0.51732-8.0573-3.3673-11.264-5.5114-4.8546-3.2463-9.0165-8.0594-11.849-13.703-1.7822-3.5508-3.6066-9.097-4.181-12.711-1.4373-9.0409-0.49492-24.817 1.9122-32.01 4.4168-13.199 15.936-24.747 27.696-27.765 5.4382-1.3958 17.936-1.3544 23.422 0.0777 1.9847 0.51804 5.2523 2.0924 6.8671 3.3087 0.56781 0.42766 2.6511 2.2337 4.6295 4.0135 1.9784 1.7798 3.799 3.2364 4.0457 3.237 0.64924 2e-3 0.83417-1.3454 0.84528-6.1564l0.0098-4.2458 28.451 0.0656-0.23346 28.075c-0.30055 36.142-0.78752 62.35-1.2125 65.253-0.78066 5.3326-4.2873 13.512-8.0841 18.857-2.4623 3.4664-6.9962 7.9603-10.647 10.553-6.2386 4.4309-15.141 8.0422-21.889 8.8794-7.8333 0.97186-27.291 1.3768-33.356 0.69422zm30.588-60.865c3.9557-0.4721 7.3653-2.4586 10.302-6.0019 1.865-2.2504 4.1214-6.3952 4.8472-8.9036 1.0188-3.5213 1.4883-14.843 0.82058-19.79-0.72358-5.3609-2.7072-9.2382-6.7289-13.152-3.6798-3.5816-6.714-4.717-12.638-4.7293-6.4668-0.0134-10.658 1.5138-14.375 5.2381-2.5888 2.5939-3.7832 4.5636-5.059 8.3428-1.4559 4.3126-1.9547 7.8186-1.9777 13.9-0.02927 7.7658 1.0377 12.993 3.4907 17.099 2.1185 3.5465 7.2338 7.2364 11.067 7.9836 1.9013 0.37058 7.2002 0.3775 10.251 0.0134z" fill-opacity=".71795" style="paint-order:markers stroke fill"/>
   <g fill-opacity=".71795">
    <path transform="matrix(.26458 0 0 .26458 61.284 54.304)" d="m136.02 328.66 0.15259-66.096 28.458 0.0656-0.0164 7.0832-0.0163 7.0832 4.0691-3.9559c5.866-5.7029 10.327-8.6108 16.194-10.557 7.4515-2.4718 17.19-2.2338 25.057 0.61219 12.707 4.5972 20.743 14.96 23.544 30.362 0.89959 4.9455 0.95702 17.628 0.10453 23.082-1.0982 7.0257-3.1756 13.236-6.0216 18.002-6.4984 10.881-15.549 17.511-27.396 20.07-3.9114 0.84461-12.618 0.75242-16.248-0.17203-6.5235-1.6614-10.357-3.8389-15.132-8.5959-1.9051-1.8978-3.5676-3.4508-3.6944-3.4511-0.4822-1e-3 -0.64122 6.7034-0.69492 29.298l-0.0555 23.333-28.458-0.0656zm52.314 5.461c2.6813-0.62007 6.5359-2.5559 8.5054-4.2715 4.2336-3.6879 7.1223-9.8974 8.0804-17.369 0.60919-4.7512 0.2673-12.717-0.7107-16.558-1.6447-6.4602-4.4641-10.286-9.3316-12.663-5.7407-2.8029-13.158-3.0163-18.135-0.52172-5.4233 2.7187-10.628 9.1495-11.772 14.547-1.1027 5.2003-1.0395 18.539 0.10883 22.967 1.783 6.8756 6.8522 12.087 13.462 13.839 2.2309 0.59139 7.2995 0.60745 9.792 0.031z" style="paint-order:markers stroke fill"/>
    <path transform="matrix(.26458 0 0 .26458 61.284 54.304)" d="m284.19 354.7c-11.597-2.1178-20.57-10.334-23.277-21.314-1.5223-6.1752-1.8355-14.357-1.7717-46.287l0.0485-24.251 28.052 0.0648 0.1441 25.475c0.15508 27.415 0.37632 33.355 1.3482 36.201 2.7389 8.021 11.757 12.143 20.539 9.388 4.058-1.2731 8.595-5.0897 10.484-8.8189 2.0471-4.0418 2.3442-8.7061 2.4124-37.867l0.0559-23.898 3.7494-0.37334c2.0622-0.20534 8.4658-0.43485 14.23-0.51002l10.481-0.13667-0.10464 45.325-0.10463 45.325-28.458-0.0656 0.0159-6.885c0.0122-5.3055-0.0719-6.8846-0.36661-6.8832-0.21038 1e-3 -2.7162 2.2157-5.5684 4.9214-7.4039 7.0235-10.1 8.6056-17.101 10.036-3.5428 0.72388-12.118 1.0439-14.808 0.5526z" style="paint-order:markers stroke fill"/>
    <path transform="matrix(.26458 0 0 .26458 61.284 54.304)" d="m34.432 394.8c-4.1484-0.13067-6.8092-0.36126-8.2604-0.71585-3.5245-0.86116-10.992-3.0224-11.239-3.2527-0.25719-0.24009 0.20021-21.013 0.46857-21.28 0.094-0.0936 2.2913 0.6519 4.8829 1.6566 8.9663 3.476 14.924 4.6482 23.717 4.6665 12.09 0.0252 19.048-2.5087 25.49-9.2823 4.0177-4.2248 5.5273-8.2835 6.649-17.877 0.62544-5.3488 0.63343-7.7696 0.02763-8.3782-0.51111-0.51347 0.02461-0.93118-6.5841 5.1338-3.4025 3.1226-5.3634 4.5109-8.7354 6.1848-4.8447 2.405-4.5976 2.3691-16.071 2.3388-11.621-0.0306-10.322 0.20234-16.665-2.9882-5.4589-2.7457-8.991-5.5086-12.25-9.5826-4.7541-5.9425-7.9544-13.796-8.9362-21.931-0.4011-3.3232-0.37988-12.603 0.039193-17.144 0.41435-4.4899 1.382-9.9452 2.1902-12.348 2.1097-6.2726 5.9359-12.27 11.159-17.49 6.5376-6.5341 12.834-9.9062 20.154-10.794 3.9882-0.48393 15.836-0.18734 18.669 0.46734 3.7195 0.85954 6.6945 2.5997 11.352 6.6402 4.3842 3.803 5.2673 4.3668 5.722 3.6528 0.14524-0.22805 0.27119-2.5834 0.27989-5.2342l0.01581-4.8195 28.253 0.0652-0.28489 33.736c-0.36779 43.553-0.73975 58.207-1.5647 61.645-1.1464 4.7778-4.1936 11.589-7.0799 15.826-7.8412 11.51-21.775 19.38-36.458 20.593-5.9469 0.49129-17.84 0.73523-24.94 0.51156zm28.575-61.379c0.99705-0.35581 2.471-1.0672 3.2755-1.5808 3.4272-2.188 7.4888-7.7424 8.8646-12.123 0.9397-2.9917 1.3223-7.8636 1.1852-15.091-0.10624-5.598-0.22242-6.8909-0.79546-8.852-1.259-4.3089-3.9854-8.2643-7.7203-11.201-3.1888-2.507-4.7082-2.9822-10.086-3.1548-5.1251-0.16448-7.7236 0.24772-10.862 1.7231-2.3049 1.0836-6.1299 4.6197-7.5786 7.0062-3.2078 5.2847-4.7426 14.533-3.9287 23.673 0.88535 9.9413 3.8481 15.122 10.728 18.758 2.9095 1.5378 3.7862 1.6798 9.7494 1.5789 4.5185-0.0764 5.6385-0.19166 7.1681-0.73751z" style="paint-order:markers stroke fill"/>
    <path transform="matrix(.26458 0 0 .26458 61.284 54.304)" d="m136.02 328.66 0.15259-66.096 28.458 0.0656-0.0336 14.525 3.4504-3.3869c7.2174-7.0848 12.104-10.132 19.237-11.998 3.5957-0.94055 11.755-1.1791 15.821-0.46254 15.993 2.8186 26.382 13.559 29.995 31.01 0.81853 3.9539 1.1504 15.62 0.60064 21.116-1.2322 12.317-5.6695 22.207-13.45 29.979-4.5772 4.5718-9.9723 7.8134-16.355 9.827-3.6833 1.162-6.7074 1.5736-11.479 1.5626-10.459-0.0242-16.595-2.5351-24.16-9.8876-1.5398-1.4965-2.9394-2.7212-3.1104-2.7216-0.17099-4e-4 -0.39994 0.63795-0.50876 1.4186-0.10883 0.7806-0.22374 12.623-0.25535 26.316l-0.0575 24.896-28.458-0.0656zm54.595 4.8832c7.4133-3.0131 11.175-7.6137 13.589-16.619 0.67393-2.5141 0.81248-3.7919 0.94507-8.7163 0.18405-6.835-0.19414-10.568-1.46-14.412-2.5111-7.6256-7.6409-11.657-16.216-12.742-6.423-0.81321-11.691 1.0463-16.423 5.797-3.1019 3.1142-5.1254 6.4093-6.0793 9.8994-1.1453 4.1905-1.1489 19.049-6e-3 23.591 1.3108 5.208 5.3407 10.28 9.9232 12.488 3.2427 1.5629 4.1455 1.7254 9.1605 1.648 4.0751-0.0629 4.611-0.13908 6.566-0.93368z" style="paint-order:markers stroke fill"/>
    <path transform="matrix(.26458 0 0 .26458 61.284 54.304)" d="m282.3 354.11c-9.4589-2.3469-17.356-9.3526-20.383-18.083-0.95581-2.7562-1.5468-5.6615-1.9694-9.6816-0.31245-2.9723-0.77126-35.52-0.7646-54.241l3e-3 -9.2566 27.846 0.0643 6e-3 1.4535c0.0754 18.966 0.54624 51.999 0.78319 54.947 0.37038 4.6079 0.80749 6.0853 2.6104 8.8232 2.122 3.2226 5.5216 5.4844 9.6413 6.4149 2.4364 0.55024 7.2555 0.27162 9.5925-0.55459 3.6305-1.2835 7.716-4.6598 9.7745-8.0777 2.38-3.9518 2.6491-7.7403 2.7232-38.335l0.0579-23.911 0.6928-0.17218c1.1379-0.2828 11.152-0.74195 19.735-0.90491l8.033-0.1525-0.10456 45.291-0.10455 45.291-28.458-0.0656 0.0159-6.885c0.0125-5.4207-0.0681-6.8852-0.37916-6.886-0.21728-5.1e-4 -2.5973 2.0037-5.2888 4.4538-7.7192 7.0266-9.802 8.3832-14.94 9.7308-5.5539 1.4568-14.791 1.8136-19.123 0.73868z" style="paint-order:markers stroke fill"/>
   </g>
  </g>
 </g>
</svg>
