<?xml version="1.0" encoding="UTF-8"?>
<svg width="109.09mm" height="111.94mm" version="1.1" viewBox="0 0 109.09 111.94" xmlns="http://www.w3.org/2000/svg" xmlns:xlink="http://www.w3.org/1999/xlink">
 <defs>
  <linearGradient id="linearGradient110112" x1="87.923" x2="155.34" y1="115.67" y2="59.998" gradientTransform="matrix(1 0 0 .88177 -44.281 -17.877)" gradientUnits="userSpaceOnUse">
   <stop stop-color="#0226de" offset="0"/>
   <stop stop-color="#a2419f" offset="1"/>
  </linearGradient>
 </defs>
 <g transform="translate(-26.422 -25.341)">
  <g>
   <text transform="scale(1.0213 .97918)" x="25.48333" y="126.42896" fill="#000000" font-family="'Segoe UI'" font-size="49.742px" font-weight="bold" letter-spacing="1.4016px" stroke-width=".25907" style="line-height:1.25" xml:space="preserve"><tspan x="25.48333" y="126.42896" font-family="'Segoe UI'" font-size="49.742px" font-weight="bold" stroke-width=".25907">wgsl</tspan></text>
   <g stroke-width="0">
    <rect x="37.697" y="25.341" width="85.381" height="57.019" rx="0" ry="0" fill="url(#linearGradient110112)" style="mix-blend-mode:normal;paint-order:markers stroke fill"/>
    <path d="m117.42 30.126-73.777 61.868h53.417z" fill="#2c2a2c"/>
    <path d="m117.42 30.126-44.222 37.097-16.265-35.62 23.775 9.7188z" fill="#515252"/>
    <path d="m80.707 41.322-7.5098 25.901-16.265-35.62z" fill="#6d6d6c"/>
    <path d="m73.197 67.222-14.189 11.873-2.0764-47.492z" fill="#7d7e7d"/>
   </g>
  </g>
  <g fill="#fff" stroke-width="0">
   <path transform="matrix(.26458 0 0 .26458 26.422 25.341)" d="m14.883 328.23c-6.9877-23.852-12.973-44.393-13.301-45.647-0.54386-2.0797 0.64556-2.2788 13.611-2.2788 12.426 0 14.289 0.2822 14.858 2.2502 2 6.9114 13.666 62.674 13.666 65.322 0 1.7316 0.57862 3.1483 1.2858 3.1483s1.2858-1.3361 1.2858-2.9691c0-2.5527 12.973-51.471 16.859-63.572l1.342-4.1789h13.377c12.822 0 13.404 0.11996 14.028 2.8931 0.35809 1.5912 3.8408 15.748 7.7394 31.46 3.8986 15.712 7.0883 30.322 7.0883 32.467 0 9.7548 2.4506 1.3326 9.0609-31.14l7.1321-35.036 13.275-0.36816c10.597-0.29389 13.143-0.0247 12.622 1.3343-0.35931 0.93634-6.5924 21.498-13.851 45.693l-13.198 43.991h-30.037l-7.1944-27.967c-3.9569-15.382-7.7301-30.281-8.3849-33.11l-1.1905-5.1433-0.87682 3.8575c-0.48225 2.1216-4.4412 17.021-8.7976 33.11l-7.9208 29.252h-29.774z" style="paint-order:markers stroke fill"/>
   <path transform="matrix(.26458 0 0 .26458 26.422 25.341)" d="m192.23 413.98c-4.9504-0.45773-11.46-1.5237-14.465-2.3688l-5.4647-1.5365v-22.903l7.1935 3.2933c8.4427 3.8652 25.042 5.4266 33.437 3.1453 12.54-3.4075 19.333-12.086 20.67-26.406 0.43463-4.6544 0.33105-8.4625-0.23017-8.4625s-3.0636 2.1038-5.5608 4.6751c-13.08 13.468-37.43 13.507-51.446 0.0808-18.425-17.649-16.661-57.894 3.307-75.471 7.1199-6.2672 15.127-9.0061 26.331-9.0061 10.527 0 16.631 2.2847 23.196 8.6816l4.8218 4.6985v-12.094h28.288v42.899c0 23.595-0.58305 45.974-1.2957 49.731-5.6696 29.896-30.312 44.6-68.781 41.043zm26.432-61.667c9.7619-2.7119 15.372-12.698 15.328-27.283-0.0524-17.38-6.6198-25.422-20.768-25.431-6.0591-4e-3 -7.996 0.58519-11.434 3.478-6.2861 5.2894-8.8552 12.192-8.8882 23.882-0.0311 11.004 1.7632 16.684 6.71 21.241 5.2403 4.8278 11.565 6.1934 19.051 4.1136z" style="paint-order:markers stroke fill"/>
   <path transform="matrix(.26458 0 0 .26458 26.422 25.341)" d="m302.87 372.74c-4.2098-0.61344-9.562-1.745-11.894-2.5146l-4.2396-1.3992v-10.324c0-9.329 0.21695-10.235 2.2502-9.3966 11.008 4.5389 17.347 6.0531 25.395 6.0668 10.525 0.0179 15.727-1.7023 17.201-5.6884 2.348-6.3474-1.4063-9.6427-16.558-14.534-16.328-5.2707-24.32-11.479-26.946-20.933-1.6612-5.9813-1.6572-7.4539 0.0362-13.552 1.8768-6.7586 8.9038-14.117 16.955-17.755 5.9335-2.681 8.6626-3.0455 22.813-3.0468 8.84-7.9e-4 18.243 0.45874 20.895 1.0212l4.8218 1.0226v20.061l-6.7506-2.3321c-3.8647-1.3351-10.497-2.35-15.514-2.374-11.579-0.0555-16.246 2.3616-16.29 8.438-0.0288 3.935 3.7481 6.7348 13.677 10.139 20.586 7.0576 27.557 12.255 29.978 22.347 4.1599 17.34-8.7122 31.598-31.459 34.847-10.306 1.4717-13.724 1.4587-24.37-0.0927z" style="paint-order:markers stroke fill"/>
   <path transform="matrix(.26458 0 0 .26458 26.422 25.341)" d="m383.17 304.1v-67.505h28.288v135.01h-28.288z" style="paint-order:markers stroke fill"/>
  </g>
 </g>
</svg>
